<?xml version="1.0" encoding="UTF-8" standalone="no"?>
<svg
   xmlns:dc="http://purl.org/dc/elements/1.1/"
   xmlns:cc="http://creativecommons.org/ns#"
   xmlns:rdf="http://www.w3.org/1999/02/22-rdf-syntax-ns#"
   xmlns:svg="http://www.w3.org/2000/svg"
   xmlns="http://www.w3.org/2000/svg"
   xmlns:sodipodi="http://sodipodi.sourceforge.net/DTD/sodipodi-0.dtd"
   xmlns:inkscape="http://www.inkscape.org/namespaces/inkscape"
   width="100pt"
   height="100pt"
   viewBox="0 0 35.277777 35.277779"
   version="1.1"
   id="svg8"
   inkscape:version="1.0.1 (3bc2e813f5, 2020-09-07)"
   sodipodi:docname="kr_logo.svg">
  <defs
     id="defs2" />
  <sodipodi:namedview
     id="base"
     pagecolor="#ffffff"
     bordercolor="#666666"
     borderopacity="1.0"
     inkscape:pageopacity="0"
     inkscape:pageshadow="2"
     inkscape:zoom="7.9999996"
     inkscape:cx="60.844736"
     inkscape:cy="38.772143"
     inkscape:document-units="pt"
     inkscape:current-layer="layer1"
     inkscape:document-rotation="0"
     showgrid="false"
     units="pt"
     inkscape:pagecheckerboard="true"
     inkscape:snap-page="true"
     inkscape:window-width="3840"
     inkscape:window-height="2081"
     inkscape:window-x="2869"
     inkscape:window-y="-11"
     inkscape:window-maximized="1" />
  <metadata
     id="metadata5">
    <rdf:RDF>
      <cc:Work
         rdf:about="">
        <dc:format>image/svg+xml</dc:format>
        <dc:type
           rdf:resource="http://purl.org/dc/dcmitype/StillImage" />
        <dc:title></dc:title>
      </cc:Work>
    </rdf:RDF>
  </metadata>
  <g
     inkscape:label="Layer 1"
     inkscape:groupmode="layer"
     id="layer1">
    <path
       id="path852"
       style="opacity:1;fill:#000000;fill-opacity:0.991803;stroke:#000000;stroke-width:0;stroke-linejoin:round;stroke-miterlimit:4;stroke-dasharray:none;stroke-opacity:1"
       d="M 66.308594 0 A 66.666665 66.666665 0 0 0 0 66.666016 A 66.666665 66.666665 0 0 0 66.666016 133.33398 A 66.666665 66.666665 0 0 0 133.33398 66.666016 A 66.666665 66.666665 0 0 0 66.666016 0 A 66.666665 66.666665 0 0 0 66.308594 0 z M 66.666016 1.6660156 A 64.999996 64.999996 0 0 1 131.66602 66.666016 A 64.999996 64.999996 0 0 1 66.666016 131.66602 A 64.999996 64.999996 0 0 1 1.6660156 66.666016 A 64.999996 64.999996 0 0 1 66.666016 1.6660156 z "
       transform="scale(0.26458335)" />
    <path
       id="path869"
       style="opacity:1;fill:#000000;fill-opacity:0.991803;stroke:none;stroke-width:0;stroke-linejoin:round;stroke-miterlimit:4;stroke-dasharray:none;stroke-opacity:1"
       d="M 66.224609 3.3339844 A 63.333334 63.333334 0 0 0 3.3339844 66.666016 A 63.333334 63.333334 0 0 0 66.666016 130 A 63.333334 63.333334 0 0 0 130 66.666016 A 63.333334 63.333334 0 0 0 66.666016 3.3339844 A 63.333334 63.333334 0 0 0 66.224609 3.3339844 z M 66.666016 5 A 61.666669 61.666669 0 0 1 128.33398 66.666016 A 61.666669 61.666669 0 0 1 66.666016 128.33398 A 61.666669 61.666669 0 0 1 5 66.666016 A 61.666669 61.666669 0 0 1 66.666016 5 z M 66.294922 60.916016 A 5.763011 5.763011 0 0 0 65.695312 60.986328 A 5.763011 5.763011 0 0 1 66.294922 60.916016 z M 70.960938 62.822266 A 5.763011 5.763011 0 0 1 71.21875 63.132812 A 5.763011 5.763011 0 0 0 70.960938 62.822266 z M 62.134766 63.107422 A 5.763011 5.763011 0 0 0 61.896484 63.433594 A 5.763011 5.763011 0 0 1 62.134766 63.107422 z M 61.896484 63.433594 A 5.763011 5.763011 0 0 0 61.681641 63.775391 A 5.763011 5.763011 0 0 1 61.896484 63.433594 z M 61.40625 64.314453 A 5.763011 5.763011 0 0 0 61.328125 64.5 A 5.763011 5.763011 0 0 1 61.40625 64.314453 z M 61.236328 64.736328 A 5.763011 5.763011 0 0 0 61.128906 65.072266 A 5.763011 5.763011 0 0 1 61.236328 64.736328 z M 60.916016 67.039062 A 5.763011 5.763011 0 0 0 60.986328 67.638672 A 5.763011 5.763011 0 0 1 60.916016 67.039062 z M 71.269531 70.132812 A 5.763011 5.763011 0 0 1 71.072266 70.380859 A 5.763011 5.763011 0 0 0 71.269531 70.132812 z M 63.107422 71.199219 A 5.763011 5.763011 0 0 0 63.433594 71.4375 A 5.763011 5.763011 0 0 1 63.107422 71.199219 z M 63.433594 71.4375 A 5.763011 5.763011 0 0 0 63.775391 71.652344 A 5.763011 5.763011 0 0 1 63.433594 71.4375 z M 64.314453 71.927734 A 5.763011 5.763011 0 0 0 64.5 72.005859 A 5.763011 5.763011 0 0 1 64.314453 71.927734 z M 64.736328 72.097656 A 5.763011 5.763011 0 0 0 65.072266 72.205078 A 5.763011 5.763011 0 0 1 64.736328 72.097656 z "
       transform="scale(0.26458335)" />
    <text
       xml:space="preserve"
       style="font-size:7.05556px;line-height:1.25;font-family:Righteous;-inkscape-font-specification:Righteous;stroke-width:0.264583;opacity:1;"
       x="5.4690814"
       y="13.759715"
       id="text919"><tspan
         sodipodi:role="line"
         id="tspan917"
         x="5.4690814"
         y="13.759715"
         style="font-size:7.05556px;stroke-width:0.264583;">KIRLUH</tspan></text>
    <text
       xml:space="preserve"
       style="font-size:6.35px;line-height:1.25;font-family:Righteous;-inkscape-font-specification:Righteous;stroke-width:0.44097224;stroke-miterlimit:4;stroke-dasharray:none;fill:none;fill-opacity:1;stroke:#000000;stroke-opacity:1;opacity:1;"
       x="3.2385261"
       y="19.844957"
       id="text923"><tspan
         sodipodi:role="line"
         id="tspan921"
         x="3.2385261"
         y="19.844957"
         style="font-size:6.35px;stroke-width:0.44097224;stroke-miterlimit:4;stroke-dasharray:none;fill:none;fill-opacity:1;stroke:#000000;stroke-opacity:1;"
         dx="0 0 0 0.14 0 -0.029999999 -0.029999999">RECORDS</tspan></text>
    <text
       xml:space="preserve"
       style="font-size:3.52777px;line-height:1.25;font-family:'Roboto Slab';-inkscape-font-specification:'Roboto Slab';stroke-width:0.264583;opacity:1;"
       x="9.6627359"
       y="26.259899"
       id="text869"><tspan
         sodipodi:role="line"
         x="9.6627359"
         y="26.259899"
         style="stroke-width:0.264583;"
         id="tspan871">EST 2020</tspan></text>
  </g>
</svg>
